<svg xmlns="http://www.w3.org/2000/svg" viewBox="0 0 400 300"><g id="_230_designer_flatline" data-name="#230_designer_flatline"><path d="M328.63,242.12H71.37a.5.5,0,0,1-.5-.5.5.5,0,0,1,.5-.5H328.63a.5.5,0,0,1,.5.5A.5.5,0,0,1,328.63,242.12Z" fill="#d1d3d4"/><rect x="249.66" y="154.42" width="57.43" height="98.6" fill="#fff"/><path d="M307.09,253.52H249.66a.5.5,0,0,1-.5-.5v-98.6a.5.5,0,0,1,.5-.5h57.43a.5.5,0,0,1,.5.5V253A.5.5,0,0,1,307.09,253.52Zm-56.93-1h56.43v-97.6H250.16Z" fill="#231f20"/><rect x="91.44" y="154.42" width="57.43" height="98.6" fill="#fff"/><path d="M148.87,253.52H91.44a.5.5,0,0,1-.5-.5v-98.6a.5.5,0,0,1,.5-.5h57.43a.5.5,0,0,1,.5.5V253A.5.5,0,0,1,148.87,253.52Zm-56.93-1h56.43v-97.6H91.94Z" fill="#231f20"/><polygon points="260.35 125.83 271.72 148.66 240.97 148.66 260.35 125.83" fill="#231f20"/><path d="M271.72,149.16H241a.51.51,0,0,1-.46-.29.49.49,0,0,1,.08-.53L260,125.51a.47.47,0,0,1,.44-.17.5.5,0,0,1,.39.27l11.36,22.83a.48.48,0,0,1,0,.48A.49.49,0,0,1,271.72,149.16Zm-29.67-1h28.86l-10.67-21.42Z" fill="#231f20"/><polygon points="173.02 148.66 246.23 148.66 272.79 109.74 203.68 109.74 173.02 148.66" fill="#231f20"/><path d="M246.23,149.16H173a.5.5,0,0,1-.39-.81l30.66-38.92a.49.49,0,0,1,.39-.19h69.11a.52.52,0,0,1,.44.27.49.49,0,0,1,0,.52l-26.56,38.91A.49.49,0,0,1,246.23,149.16Zm-72.18-1H246l25.88-37.92H203.92Z" fill="#231f20"/><polygon points="205.88 113.52 184 141.87 238.33 141.87 258.89 113.52 205.88 113.52" fill="#fff"/><path d="M238.33,142.37H184a.5.5,0,0,1-.45-.28.53.53,0,0,1,0-.53l21.89-28.35a.49.49,0,0,1,.39-.19h53a.48.48,0,0,1,.44.27.49.49,0,0,1,0,.52l-20.56,28.35A.49.49,0,0,1,238.33,142.37Zm-53.31-1h53L257.91,114H206.13Z" fill="#231f20"/><path d="M221.44,136.71a.5.5,0,0,1-.47-.34c-2.63-7.75-6.29-16.25-7.62-16.45h0c-1.59,0-11.79,8.43-20.85,16.67a.5.5,0,0,1-.68-.74c3.14-2.85,18.75-16.92,21.62-16.92h.11c2.56.39,7.09,13.2,8.42,17.12a.49.49,0,0,1-.32.63A.41.41,0,0,1,221.44,136.71Z" fill="#d1d3d4"/><path d="M237.76,137.75a.5.5,0,0,1-.48-.37c-1.76-6.25-4.27-12.92-5.45-13.27s-6.66,4.6-11.12,9.36a.5.5,0,0,1-.73-.69c2.28-2.43,9.88-10.3,12.14-9.62s5.5,11.74,6.12,14a.5.5,0,0,1-.34.62Z" fill="#d1d3d4"/><path d="M253.83,129c-1.23,0-2.2-.59-2.2-1.34s1-1.33,2.2-1.33,2.2.58,2.2,1.33S255.06,129,253.83,129Zm0-2.42c-1.06,0-2,.49-2,1.08s.89,1.09,2,1.09,1.95-.5,1.95-1.09S254.89,126.61,253.83,126.61Z" fill="#a7a9ac"/><path d="M262.57,117.66h-4.44a.13.13,0,0,1-.12-.12.13.13,0,0,1,.12-.13h4.44a.12.12,0,0,1,.12.13A.12.12,0,0,1,262.57,117.66Z" fill="#a7a9ac"/><path d="M246.23,149.16a.53.53,0,0,1-.3-.09.51.51,0,0,1-.11-.7L260,128.91a.5.5,0,0,1,.7-.11.51.51,0,0,1,.11.7L246.63,149A.51.51,0,0,1,246.23,149.16Z" fill="#fff"/><path d="M221.44,120.74a2.2,2.2,0,1,1,2.2-2.2A2.2,2.2,0,0,1,221.44,120.74Zm0-3.4a1.2,1.2,0,1,0,1.2,1.2A1.19,1.19,0,0,0,221.44,117.34Z" fill="#d1d3d4"/><rect x="83.81" y="149.51" width="225.72" height="9.57" fill="#fff"/><path d="M309.54,159.58H83.81a.5.5,0,0,1-.5-.5v-9.57a.51.51,0,0,1,.5-.5H309.54a.51.51,0,0,1,.5.5v9.57A.5.5,0,0,1,309.54,159.58Zm-225.23-1H309V150H84.31Z" fill="#231f20"/><path d="M168.71,201.28c.21.71-12.42,46.05-12.42,46.05l17.65,2.84,20.86-62.64Z" fill="#fff"/><path d="M173.94,250.67h-.08l-17.65-2.84a.51.51,0,0,1-.35-.22.58.58,0,0,1-.06-.41c4.93-17.66,12.27-44.37,12.41-45.87a.5.5,0,0,1,.27-.48l26.09-13.75a.52.52,0,0,1,.56.06.53.53,0,0,1,.15.54l-20.87,62.64A.49.49,0,0,1,173.94,250.67Zm-17-3.75,16.68,2.69,20.34-61.05-24.8,13.06C168.61,204.49,164.5,219.7,156.92,246.92Z" fill="#231f20"/><path d="M155.22,245.37l-2.69,8.46,42.27,3.27a17.57,17.57,0,0,0-9.6-8.65c-4.39-1.54-9.12-3.38-9.12-3.38l-2.14,5.1Z" fill="#231f20"/><path d="M194.8,257.6h0l-42.27-3.27a.5.5,0,0,1-.44-.65l2.69-8.46a.5.5,0,0,1,.6-.33l18.3,4.69,2-4.7a.49.49,0,0,1,.64-.27c.05,0,4.77,1.85,9.11,3.37a18,18,0,0,1,9.89,8.92.5.5,0,0,1,0,.49A.48.48,0,0,1,194.8,257.6Zm-41.61-4.22,40.75,3.16a17.15,17.15,0,0,0-8.9-7.62c-3.57-1.25-7.4-2.71-8.69-3.2l-1.95,4.64a.51.51,0,0,1-.59.3L155.55,246Z" fill="#231f20"/><path d="M125.55,201.88l-3,47.76s-10.14.35-12.68,2.13-4.61,9.84-4.61,9.84h3.16s1.84-6,3.86-6.72,13.5-1,13.5-1,5.54,2.14,6.43,5.81c.7,2.89.5,3.56.5,3.56h3.5a17.86,17.86,0,0,0-.7-4.86c-.7-2-3.33-4.39-3.33-4.39s5.79.12,7.72.12,3.94,3.68,3.94,3.68h3.77s-3.94-6.64-6.49-7.11-9.09-1.61-9.09-1.61l-1.78-44.5Z" fill="#231f20"/><path d="M136.25,263.77h-3.5a.54.54,0,0,1-.41-.2.52.52,0,0,1-.07-.45,10.59,10.59,0,0,0-.51-3.29c-.75-3.13-5.34-5.14-6-5.42-3.25.07-11.67.37-13.24,1-1.3.48-2.87,4.18-3.55,6.39a.51.51,0,0,1-.48.36H105.3a.51.51,0,0,1-.48-.63c.08-.33,2.14-8.26,4.8-10.12,2.35-1.64,10.46-2.11,12.5-2.2l2.94-47.32a.52.52,0,0,1,.26-.41.51.51,0,0,1,.48,0l4.74,2.73a.49.49,0,0,1,.25.41l1.77,44.1c1.46.25,6.54,1.13,8.7,1.54,2.68.5,6.41,6.64,6.82,7.34a.5.5,0,0,1,0,.5.51.51,0,0,1-.44.26h-3.77a.51.51,0,0,1-.44-.26c-.72-1.32-2.32-3.42-3.5-3.42-1.36,0-4.66-.06-6.48-.09a11.55,11.55,0,0,1,2.56,3.69,17.81,17.81,0,0,1,.73,5A.5.5,0,0,1,136.25,263.77Zm-3-1h2.47a16.08,16.08,0,0,0-.66-4.2c-.65-1.87-3.17-4.15-3.2-4.18a.51.51,0,0,1-.13-.55.54.54,0,0,1,.48-.32c.06,0,5.8.12,7.71.12s3.69,2.75,4.23,3.68h2.58c-1.34-2.11-4-5.81-5.68-6.12-2.51-.47-9-1.59-9.08-1.6a.5.5,0,0,1-.42-.48L129.8,204.9l-3.8-2.19-2.91,47a.5.5,0,0,1-.48.47c-2.78.1-10.43.65-12.41,2-1.8,1.26-3.54,6.39-4.25,8.93h2.14c.46-1.41,2.1-6,4-6.69s13.2-1,13.67-1l.19,0c.24.09,5.8,2.27,6.74,6.15A16.63,16.63,0,0,1,133.27,262.77Zm-10.68-13.13h0Z" fill="#231f20"/><path d="M183.37,171.42s39.94,2.13,42.46,7.82-16,68.26-16,68.26,19.55,6.76,16.35,8.18-35.2-1.42-35.2-1.42l15.17-58-39.52-2.66Z" fill="#fff"/><path d="M221.15,256.58c-9.38,0-27.61-1.59-30.18-1.82a.51.51,0,0,1-.37-.21.51.51,0,0,1-.07-.42l15-57.37-38.92-2.62a.54.54,0,0,1-.42-.29.49.49,0,0,1,.06-.51L183,171.12a.43.43,0,0,1,.42-.2c.1,0,10.12.54,20.32,1.78,20.89,2.52,22.16,5.39,22.58,6.34,2.47,5.59-14,62-15.82,68.15,5.31,1.85,16.51,6,16.59,8.05a.93.93,0,0,1-.65.9A18.43,18.43,0,0,1,221.15,256.58Zm-29.51-2.77c9.28.82,31.9,2.51,34.37,1.41h0c-.66-1.21-8.88-4.66-16.34-7.23a.5.5,0,0,1-.31-.62c5.12-17.35,18-63.39,16-67.92s-30.54-6.9-41.76-7.51l-16,21.27,38.6,2.61a.51.51,0,0,1,.38.2.57.57,0,0,1,.08.42Zm34.46,1.36Z" fill="#231f20"/><path d="M169.82,135.86s20.52,25.6,29.29,24.89S233,128.48,233,128.48c4.54-5.42,9.62-12.3,6.37-19.77-.32-.72-.88-1.49-1.66-1.43a2.12,2.12,0,0,0-.91.37L234,109.37c.09-.77-.89-1.32-1.64-1.11a3.38,3.38,0,0,0-1.72,1.5c-2.91,4.14-4.79,8.08-4.63,13.18l-29.36,15L185,125.05" fill="#fff"/><path d="M198.76,161.26c-9.11,0-28.5-24-29.33-25.09a.5.5,0,0,1,.78-.62c.2.25,19.92,24.72,28.52,24.72l.34,0c8.46-.68,33.27-31.77,33.51-32.09,4.69-5.58,9.42-12.12,6.31-19.25-.12-.28-.54-1.17-1.16-1.13a1.65,1.65,0,0,0-.69.3l-2.82,1.71a.5.5,0,0,1-.76-.48.4.4,0,0,0-.18-.37,1,1,0,0,0-.82-.2,3,3,0,0,0-1.45,1.31c-2.46,3.5-4.71,7.48-4.54,12.88a.5.5,0,0,1-.27.46l-29.36,15a.5.5,0,0,1-.6-.11L184.6,125.39a.5.5,0,0,1,0-.71.51.51,0,0,1,.71,0l11.38,12.58,28.75-14.65c-.09-5.53,2.21-9.6,4.72-13.17a3.9,3.9,0,0,1,2-1.7,2,2,0,0,1,1.75.41,1.65,1.65,0,0,1,.34.41l2.24-1.37a2.55,2.55,0,0,1,1.14-.44c.87-.07,1.64.57,2.14,1.73,3.62,8.3-2.92,16.1-6.44,20.29-1,1.28-25.32,31.73-34.21,32.45Z" fill="#231f20"/><path d="M102.65,131.49S92.08,155.44,96,158s27.78,0,27.78,0l-2.07-31" fill="#fff"/><path d="M105.07,159.58c-4.27,0-8-.3-9.36-1.2-.68-.44-2.76-1.79,1.67-14.76,2.13-6.25,4.78-12.27,4.81-12.33a.5.5,0,1,1,.91.4c-4,9.11-9.42,24.18-6.84,25.85,3,2,20,.68,27,0l-2-30.51a.5.5,0,1,1,1-.07l2.07,31a.5.5,0,0,1-.45.53C123.18,158.53,113.1,159.58,105.07,159.58Z" fill="#231f20"/><path d="M111.26,172.08s-5.17,11.48.34,18.72,82,8.11,82,8.11l5.49-27.49-32-4.36-1.86-9.51Z" fill="#fff"/><path d="M193.62,199.41h0c-.19,0-19.36-.23-39-1.34-26.45-1.5-41.07-3.85-43.45-7-5.62-7.38-.62-18.74-.4-19.22a.49.49,0,0,1,.33-.28l54-14.53a.47.47,0,0,1,.4.06.49.49,0,0,1,.22.32l1.79,9.17,31.61,4.3a.48.48,0,0,1,.34.21.47.47,0,0,1,.08.38L194.11,199A.5.5,0,0,1,193.62,199.41Zm-82-26.91c-.65,1.59-4.48,11.62.38,18,4.22,5.54,54.72,7.6,81.21,7.92l5.31-26.57-31.44-4.28a.5.5,0,0,1-.42-.4l-1.75-9Z" fill="#231f20"/><path d="M142.6,75.37a6.88,6.88,0,0,1-2-1.82A10.55,10.55,0,0,1,139,70c-2.71-9.8-2.73-22.35,6-29.06a20.28,20.28,0,0,1,18.34-3.25c4.24,1.38,7.84,7.21,9.73,11,1.55,3.07,2.6,6.41,4.44,9.31s4.77,5.44,8.21,5.61a10.36,10.36,0,0,1-9,.54,5.87,5.87,0,0,0,5.95,2.23c-2,1.59-4.86,1.53-7.38,1s-5-1.33-7.59-1c-4,.45-6.6,3.39-9.73,5.52C154,74.5,147.14,78,142.6,75.37Z" fill="#fff"/><path d="M146.37,76.81a7.83,7.83,0,0,1-4-1h0a7.17,7.17,0,0,1-2.17-2,11.14,11.14,0,0,1-1.68-3.76c-1.32-4.8-4.8-21.14,6.15-29.58a20.73,20.73,0,0,1,18.81-3.33c4.54,1.47,8.23,7.65,10,11.2.6,1.2,1.14,2.45,1.65,3.66a39.54,39.54,0,0,0,2.76,5.62c1,1.55,3.72,5.17,7.81,5.37a.49.49,0,0,1,.46.38.48.48,0,0,1-.24.55,10.88,10.88,0,0,1-7.3,1.19,5.3,5.3,0,0,0,3.92.66.5.5,0,0,1,.43.88c-1.79,1.41-4.41,1.79-7.79,1.14-.6-.11-1.2-.25-1.8-.39a16.92,16.92,0,0,0-5.63-.64c-2.83.32-4.93,2-7.16,3.69-.76.59-1.54,1.19-2.35,1.75C155.91,73.82,150.91,76.81,146.37,76.81Zm10.95-39.59a19.83,19.83,0,0,0-12.06,4.08c-10.45,8.07-7.08,23.87-5.79,28.53A10.11,10.11,0,0,0,141,73.25a6.23,6.23,0,0,0,1.87,1.69h0c4.82,2.8,12.57-2,14.83-3.53.78-.53,1.55-1.13,2.29-1.71,2.24-1.74,4.56-3.54,7.67-3.89a17.63,17.63,0,0,1,6,.66c.59.13,1.18.27,1.77.38a11.15,11.15,0,0,0,5.06,0,6.42,6.42,0,0,1-4.13-2.5.5.5,0,0,1,0-.6.48.48,0,0,1,.58-.15,9.93,9.93,0,0,0,7.06.15,12.21,12.21,0,0,1-6.91-5.57,39.45,39.45,0,0,1-2.84-5.76c-.51-1.19-1-2.43-1.63-3.6-1.38-2.75-5.07-9.29-9.43-10.7A19,19,0,0,0,157.32,37.22Z" fill="#231f20"/><path d="M169.7,68.25S172.43,76.79,171,78s-4.4-.69-4.4-.69" fill="#fff"/><path d="M169.79,78.91a7.45,7.45,0,0,1-3.43-1.18.5.5,0,1,1,.54-.84c.7.44,2.89,1.53,3.8.73.69-.59-.2-5.24-1.48-9.21a.51.51,0,0,1,.33-.63.5.5,0,0,1,.63.32c.66,2.08,2.71,9,1.17,10.28A2.28,2.28,0,0,1,169.79,78.91Z" fill="#231f20"/><path d="M171.36,58.46c2.33,3.32,0,8.3-1,11.69q-2.07,7.16-4.47,14.21c-1,3-8.88.83-10-.46l-2.14,12.31-16.57-5.73,5.33-14.93s5.33,1.54,10.13-3.77,8.14-18.85,8.14-18.85S169.09,55.21,171.36,58.46Z" fill="#fff"/><path d="M153.74,96.71l-.16,0L137,91a.48.48,0,0,1-.29-.25.58.58,0,0,1,0-.39L142,75.38a.49.49,0,0,1,.6-.31c.21.05,5.11,1.37,9.63-3.63s8-18.49,8-18.63a.48.48,0,0,1,.23-.31.5.5,0,0,1,.38,0c.35.1,8.52,2.37,10.87,5.72h0c2.08,3,.74,7-.35,10.3-.21.64-.41,1.25-.58,1.82-1.38,4.75-2.88,9.54-4.48,14.23A2.76,2.76,0,0,1,164,86.24a13.65,13.65,0,0,1-7.81-1.46l-2,11.52a.47.47,0,0,1-.24.34A.45.45,0,0,1,153.74,96.71Zm-15.93-6.54,15.54,5.38,2-11.74a.5.5,0,0,1,.87-.24c.72.83,5.05,2.19,7.59,1.69.86-.17,1.38-.53,1.56-1.07,1.59-4.67,3.1-9.44,4.47-14.18.17-.58.38-1.2.59-1.86,1-3.05,2.28-6.85.48-9.41s-8-4.64-9.82-5.18c-.67,2.55-3.77,13.73-8.13,18.55-4.19,4.63-8.73,4.28-10.18,4Z" fill="#231f20"/><path d="M166.78,80.76s-4.35,1.24-5.24-3.15" fill="#fff"/><path d="M165.45,81.42A4.68,4.68,0,0,1,163,80.8a4.48,4.48,0,0,1-2-3.09.51.51,0,0,1,1-.2,3.52,3.52,0,0,0,1.5,2.43,4.47,4.47,0,0,0,3.11.34.5.5,0,1,1,.27,1A5.9,5.9,0,0,1,165.45,81.42Z" fill="#231f20"/><path d="M159.67,68.74a6.79,6.79,0,0,0-.41-3.66,10.08,10.08,0,0,0-1.12-2.66,3.32,3.32,0,0,0-2.36-1.51,3,3,0,0,0-2.29,1,5.56,5.56,0,0,0-1.26,2.2A10.65,10.65,0,0,0,154.4,74.5l-.19-.36" fill="#fff"/><path d="M154.4,75a.52.52,0,0,1-.37-.16,11.23,11.23,0,0,1-2.28-10.93,6,6,0,0,1,1.38-2.39,3.55,3.55,0,0,1,2.69-1.11,3.7,3.7,0,0,1,2.73,1.73,10.38,10.38,0,0,1,1.19,2.79,7.25,7.25,0,0,1,.42,3.93.51.51,0,0,1-.62.36.5.5,0,0,1-.35-.61,6.47,6.47,0,0,0-.41-3.38,9.09,9.09,0,0,0-1.06-2.52,2.75,2.75,0,0,0-2-1.3,2.52,2.52,0,0,0-1.9.81,5.07,5.07,0,0,0-1.15,2,10.21,10.21,0,0,0,1.63,9.42.54.54,0,0,1,.33.26l.18.36a.49.49,0,0,1-.16.64A.47.47,0,0,1,154.4,75Z" fill="#231f20"/><ellipse cx="169.34" cy="64.14" rx="1.77" ry="0.7" transform="translate(69.77 215.38) rotate(-77.39)" fill="#231f20"/><path d="M155.88,83.9a61.13,61.13,0,0,1-6.23-4.63s-1,8.66,4.93,10.65Z" fill="#231f20"/><path d="M154.58,90.42a.45.45,0,0,1-.16,0c-6.22-2.09-5.31-10.81-5.27-11.18a.51.51,0,0,1,.31-.41.52.52,0,0,1,.51.08,62,62,0,0,0,6.18,4.6.51.51,0,0,1,.22.52l-1.3,6a.51.51,0,0,1-.24.33A.55.55,0,0,1,154.58,90.42ZM150.1,80.29c0,2.14.28,7.25,4.12,8.95l1.1-5.11A62.06,62.06,0,0,1,150.1,80.29Z" fill="#231f20"/><path d="M108.16,175.87s.9-61.2,10.08-75.29,33-17.27,44.36-8.87,5.89,72.6,5.89,72.6S132.27,175.87,108.16,175.87Z" fill="#9897ee"/><path d="M154.67,88.11A66.32,66.32,0,0,1,171.43,98c7.86,6.53,24.45,34.61,24.45,34.61L174,145.86l-19.64-24.22Z" fill="#9897ee"/><path d="M127.7,91.92s-11.45,1.29-17.51,13.86c-3.28,6.82-11.68,28.84-11.68,28.84l25.26,2.91Z" fill="#9897ee"/><path d="M172.36,144.33a.49.49,0,0,1-.4-.21l-19.51-26.57a.5.5,0,0,1,.1-.7.51.51,0,0,1,.7.11l19.51,26.57a.5.5,0,0,1-.4.8Z" fill="#231f20"/><path d="M230.6,114.3l4.88-15.15,1.52.44-3.07,14.94S231.77,116.61,230.6,114.3Z" fill="#231f20"/><path d="M232.1,115.89l-.34,0a2.24,2.24,0,0,1-1.61-1.34.5.5,0,0,1,0-.38L235,99a.52.52,0,0,1,.62-.33l1.52.44a.5.5,0,0,1,.35.58l-3.07,15a.48.48,0,0,1-.14.25A3.53,3.53,0,0,1,232.1,115.89Zm-1-1.65a1.19,1.19,0,0,0,.79.64,2.2,2.2,0,0,0,1.54-.61l2.95-14.33-.61-.17Z" fill="#231f20"/><path d="M138.32,80c-9-2-19-.6-26.27,5a18.59,18.59,0,0,0-6.63,9,11.78,11.78,0,0,0,1.86,10.78c6.9,8.29,22.05,8.25,31.42,5.54,6.39-1.84,25.31-10.82,20.1-19.64C155.05,84.37,145.07,81.45,138.32,80Z" fill="#9897ee"/><path d="M126.86,111.07a35.45,35.45,0,0,1-16.93-4.87.49.49,0,0,1-.16-.69.5.5,0,0,1,.69-.15c.12.08,12.49,7.77,24.2,3.33,5.62-2.13,9-5.91,12.23-9.56,3.57-4,6.94-7.78,12.76-8.31a.5.5,0,0,1,.54.46.49.49,0,0,1-.45.54c-5.42.49-8.52,4-12.1,8-3.18,3.57-6.78,7.61-12.63,9.83A23,23,0,0,1,126.86,111.07Z" fill="#231f20"/><path d="M109.06,154h0a.5.5,0,0,1-.48-.52c.73-15.83,4-38.61,4-38.84a.51.51,0,0,1,.57-.42.5.5,0,0,1,.42.56c0,.23-3.31,23-4,38.74A.5.5,0,0,1,109.06,154Z" fill="#231f20"/><path d="M185.75,253.19H207s2.31-5.15,7.29-5.86c0,0,19.38,8.19,16.53,9.87s-46.57,1.5-46.57,1.5Z" fill="#231f20"/><path d="M188.71,259.21h-4.47a.49.49,0,0,1-.39-.19.5.5,0,0,1-.09-.44l1.5-5.51a.5.5,0,0,1,.49-.37h20.94c.59-1.15,3-5.21,7.53-5.86a.46.46,0,0,1,.26,0c4,1.68,17,7.36,17.13,9.84a1,1,0,0,1-.53.92C228.65,259.06,200.3,259.21,188.71,259.21Zm-3.81-1c17.53.05,43.69-.27,45.67-1.44,0-1.24-8.47-5.59-16.35-8.93-4.54.74-6.74,5.51-6.76,5.56a.5.5,0,0,1-.46.29H186.13Z" fill="#231f20"/><path d="M169.69,204c13.53-2.85,22.6-9.18,17.28-17.72s-43.53-3-51-9.33-4.8-39.9-13-45.65S79.62,119.74,75.69,127s0,60.09,11.45,71.82S156.49,206.72,169.69,204Z" fill="#231f20"/><path d="M130,207.35h-2.26c-15.2-.13-34.65-1.66-41-8.14C75.42,187.53,71,134.68,75.25,126.79c.73-1.35,2.4-2.34,5-3,10.87-2.58,36,2.12,43,7,4.41,3.09,5.78,13.62,7.11,23.8,1.21,9.3,2.46,18.91,5.95,21.88,3.32,2.82,13.52,3.23,23.39,3.63,12.15.49,24.72,1,27.73,5.82,1.74,2.8,2.08,5.5,1,8-2,4.62-8.58,8.33-18.61,10.44h0C162.93,205.88,146.09,207.35,130,207.35ZM87.85,124.12a33.61,33.61,0,0,0-7.4.69c-2.28.54-3.74,1.37-4.32,2.46-3.88,7.17.35,59.91,11.37,71.23,11.21,11.51,68.81,7.75,82.08,5h0c9.57-2,16.09-5.6,17.9-9.86.94-2.2.63-4.59-.93-7.1-2.73-4.38-15-4.87-26.92-5.35-10.5-.42-20.42-.82-24-3.87-3.78-3.22-5-12.59-6.29-22.51s-2.64-20.28-6.7-23.11C117.24,127.89,99.84,124.12,87.85,124.12ZM169.69,204h0Z" fill="#231f20"/><path d="M194.8,176.37h-.08l-32.24-5.64a.5.5,0,0,1,.17-1l32.24,5.64a.5.5,0,0,1-.09,1Z" fill="#d1d3d4"/><path d="M287.75,242l-1-.11c0-.29,3.15-29.24-6.87-42.1l.79-.61c4.32,5.54,6.83,14.44,7.44,26.45A112.72,112.72,0,0,1,287.75,242Z" fill="#231f20"/><path d="M284.3,245.69a3.43,3.43,0,0,1,.1-1c2.39-15.15-1.66-22.21-5.48-25.47l.65-.76c4,3.42,8.28,10.78,5.82,26.39-.06.38-.1.63-.1.73Z" fill="#231f20"/><path d="M279.11,212.79a5.72,5.72,0,0,0-2.66-.78,6.13,6.13,0,0,0-4.71,1.29c-.33.32-.62.86-.32,1.21a1.19,1.19,0,0,0,.64.3,4,4,0,0,1,2.75,2.75c-.69-.51-1.28-1.16-2-1.67a3.37,3.37,0,0,0-2.39-.78,4,4,0,0,0-2.33,1.56A9.26,9.26,0,0,0,266.5,219a4.29,4.29,0,0,0-.36,2.77,6.67,6.67,0,0,1,2.81-.19,3.32,3.32,0,0,1,1.82.75.91.91,0,0,1,.32.48.8.8,0,0,1-.63.85,2.54,2.54,0,0,1-1.16,0,20.39,20.39,0,0,0-2.47-.35,2.43,2.43,0,0,0-.93.06,2,2,0,0,0-1,2.06,1.22,1.22,0,0,0,.35.91c.41.32,1,.09,1.48-.11a7.26,7.26,0,0,1,2.64-.56.61.61,0,0,1,.3.05.44.44,0,0,1,.08.65,1.19,1.19,0,0,1-.64.37,13.9,13.9,0,0,1-2.1.49c-.41.06-.89.15-1.09.52a1.13,1.13,0,0,0-.11.52,6.4,6.4,0,0,0,1.12,3.81,1.83,1.83,0,0,0,.48.52,2.07,2.07,0,0,0,.89.24,14.58,14.58,0,0,0,7-1,.62.62,0,0,0,.29-.21c.13-.23-.09-.5-.26-.7-.74-.91-.57-2.22-.36-3.37a1,1,0,0,1,.26-.6.67.67,0,0,1,.9.14,1.69,1.69,0,0,1,.33.94,8.77,8.77,0,0,1-.28,3.53,17.88,17.88,0,0,0,3.35-1.14,10.35,10.35,0,0,0,2.44-1.35,4,4,0,0,0,1.49-2.3.74.74,0,0,0-.05-.51.83.83,0,0,0-.3-.26,6.32,6.32,0,0,1-2.36-2.78c-.1-.24-.15-.57.07-.69a.48.48,0,0,1,.29,0c1.26.21,1.9,1.62,2.94,2.37a.53.53,0,0,0,.29.12.46.46,0,0,0,.34-.15,2.69,2.69,0,0,0,.81-1.46,5.27,5.27,0,0,0-.18-3.33,3.77,3.77,0,0,0-2.44-2.19,4.31,4.31,0,0,0-1.56-.07c-.18,0-1.14.34-1.27.22s.38-.84.5-1.08C281.19,215.49,280.32,213.59,279.11,212.79Z" fill="#231f20"/><path d="M294.22,203.74a4.82,4.82,0,0,0-4,2.07,5.52,5.52,0,0,0-.7,3.46,16,16,0,0,0,.86,3.47,4.89,4.89,0,0,1,3.82-2.49c1.63-.14-.27,1.43-.55,1.76-.92,1.08-1.8,2.19-2.67,3.31a2,2,0,0,0-.49,1,2,2,0,0,0,.34,1.13,10.22,10.22,0,0,0,3,3.83,1.24,1.24,0,0,0,1.3.21,1.45,1.45,0,0,0,.44-.64,11.4,11.4,0,0,1,1.85-2.76c.18-.21.47-.42.7-.27s.19.38.17.6l-.21,2.23a5.29,5.29,0,0,0,.14,2.41c.53,1.42,2.13,2.13,3.62,2.41a2.37,2.37,0,0,0,1.24,0c.8-.28,1.13-1.23,1.27-2.07a6.15,6.15,0,0,1,1.31-3,11.19,11.19,0,0,0,1.37,4.13,5.59,5.59,0,0,0,1.47,1.77,5.28,5.28,0,0,0,2.17.9,16.3,16.3,0,0,0,4,.22,10,10,0,0,0,2.74-.35,3.71,3.71,0,0,0,2.16-1.63c.79-1.42.18-3.25-.84-4.51s-2.4-2.2-3.46-3.43a9.68,9.68,0,0,1,3.61,1.88,1.34,1.34,0,0,0,1,.46.89.89,0,0,0,.46-.26c1.58-1.58-.24-4.25-1.08-5.67a4.61,4.61,0,0,0-2.24-2.3,3.66,3.66,0,0,0-1.8,0c-.9.15-5.36,2.18-3.46-.49a5.24,5.24,0,0,1,4.14-1.81c.77.07,1.94.69,1.92-.75a2.7,2.7,0,0,0-.58-1.41,30.94,30.94,0,0,0-2-2.67,1.31,1.31,0,0,0-.75-.53,1.28,1.28,0,0,0-.75.21,17.06,17.06,0,0,1-5.94,2.22c-.48,0-1.15-.15-1.07-.62a.7.7,0,0,1,.31-.41c1.27-1,3.17-.57,4.47-1.49a1.56,1.56,0,0,0,.71-1.12c0-.67-.55-1.2-1.09-1.61a9.48,9.48,0,0,0-4.77-2.21c-2.63-.21-5,1.52-6.77,3.49-.59.67-1,2.41-1.91,2.3A15.2,15.2,0,0,1,296,204,5.73,5.73,0,0,0,294.22,203.74Z" fill="#231f20"/><path d="M281.48,189.9a4.36,4.36,0,0,0-1.31-2.66c-1.34-1.22-3.35-1.28-5.14-1a26.29,26.29,0,0,0-3.94,1.17c-1.29.37-1.67.66-.52,1.71.81.73,3,3.34,2,4.59s-2.68-1.94-3.33-2.47a4.76,4.76,0,0,0-3.16-1.35,4.93,4.93,0,0,0-2.72,1.44,28.67,28.67,0,0,0-2.22,2.19,1.11,1.11,0,0,0-.26.39c-.16.58.63.92,1.22,1,1.69.31,3.58,1.19,3.92,2.87-1.74.43-3.38-1.33-5.16-1.14a4.05,4.05,0,0,0-2.85,2.53,6.42,6.42,0,0,0-.43,3.57,9.54,9.54,0,0,1,4.68-.4.81.81,0,0,1,.52.23.58.58,0,0,1-.23.78,1.54,1.54,0,0,1-.88.15l-2.9,0a1.26,1.26,0,0,0-.81.19,1.14,1.14,0,0,0-.32.75,15.68,15.68,0,0,0-.05,4,3.4,3.4,0,0,0,.91,2.22,3.49,3.49,0,0,0,1.54.66,20.34,20.34,0,0,0,4.47.56,3.52,3.52,0,0,1-.45-3.23c.6-1.4,1.62-.59,1.67.68,0,.6-.11,1.19-.13,1.79a.63.63,0,0,0,.06.33.6.6,0,0,0,.23.18,3.67,3.67,0,0,0,2.6.34,1.67,1.67,0,0,0,.69-.31,2.17,2.17,0,0,0,.42-2l-.41-3.61a.56.56,0,0,1,.1-.49c.18-.18.5,0,.69.14a3.24,3.24,0,0,1,1.08,2.63c0,.57-.24,1.12-.28,1.68a1.63,1.63,0,0,0,.6,1.51,2,2,0,0,0,1.54.08,3,3,0,0,0,1.75-.91,2.7,2.7,0,0,0,.33-2.12,13.41,13.41,0,0,1-.42-2.17c0-1.48,1.52-3.6,1.77-1a18.13,18.13,0,0,1-.15,2.54.74.74,0,0,0,0,.33.68.68,0,0,0,.57.27,6.32,6.32,0,0,0,3.41-.66,5.32,5.32,0,0,0,1.86-1.5,8.79,8.79,0,0,0,.93-1.67c1.21-2.57,3.14-4.58.89-7.33-.77-.94-2.2-1.19-2.92-2.15-.85-1.14.46-2.95.51-4.38A6.11,6.11,0,0,0,281.48,189.9Z" fill="#231f20"/><path d="M274.27,239h25.5l-2,19.14a5.7,5.7,0,0,1-5.68,5.12H281.9a5.7,5.7,0,0,1-5.67-5.12Z" fill="#fff"/><path d="M292.13,263.79H281.9a6.21,6.21,0,0,1-6.19-5.59l-2-19.14a.54.54,0,0,1,.13-.39.52.52,0,0,1,.39-.17h25.5a.49.49,0,0,1,.38.17.47.47,0,0,1,.13.39l-2,19.14A6.2,6.2,0,0,1,292.13,263.79Zm-17.29-24.26,1.9,18.57a5.18,5.18,0,0,0,5.16,4.66h10.23a5.18,5.18,0,0,0,5.16-4.66l1.91-18.57Z" fill="#231f20"/><path d="M290.56,239.35c0-.18-2-18.5,7-33.26l.86.52c-8.81,14.46-6.85,32.44-6.83,32.62Z" fill="#231f20"/><path d="M267.4,204.6a.51.51,0,0,1-.34-.14.5.5,0,0,1,0-.71c5.22-5.5,13.44-8.85,13.79-9a.5.5,0,1,1,.37.93c-.08,0-8.37,3.4-13.44,8.75A.5.5,0,0,1,267.4,204.6Z" fill="#fff"/><path d="M270.92,230.08a.5.5,0,0,1-.44-.73,41.59,41.59,0,0,1,7.14-9.7.49.49,0,0,1,.7,0,.5.5,0,0,1,0,.7,40.85,40.85,0,0,0-6.94,9.45A.51.51,0,0,1,270.92,230.08Z" fill="#fff"/><path d="M313.44,223a.52.52,0,0,1-.42-.22c-.24-.37-6-9-12.83-14.1a.5.5,0,0,1-.1-.7.51.51,0,0,1,.7-.1c6.82,5.15,12.44,13.42,13.06,14.34a.5.5,0,0,1-.14.69A.46.46,0,0,1,313.44,223Z" fill="#fff"/><rect x="250.08" y="49.3" width="60.71" height="42.62" fill="#fff"/><path d="M310.78,92.42h-60.7a.5.5,0,0,1-.5-.5V49.3a.5.5,0,0,1,.5-.5h60.7a.5.5,0,0,1,.5.5V91.92A.5.5,0,0,1,310.78,92.42Zm-60.2-1h59.7V49.8h-59.7Z" fill="#d1d3d4"/><path d="M289.26,132.38a.51.51,0,0,1-.5-.42L286.3,116,282,117.9a.5.5,0,0,1-.66-.26.49.49,0,0,1,.26-.65l4.91-2.12a.49.49,0,0,1,.44,0,.51.51,0,0,1,.26.36l2.56,16.55a.49.49,0,0,1-.42.57Z" fill="#231f20"/><polygon points="297.74 149.51 285.22 149.51 284.54 122.56 298.42 122.56 297.74 149.51" fill="#fff"/><path d="M297.74,150H285.22a.5.5,0,0,1-.5-.48L284,122.58a.51.51,0,0,1,.14-.36.52.52,0,0,1,.36-.16h13.88a.53.53,0,0,1,.5.52l-.68,27A.5.5,0,0,1,297.74,150Zm-12-1h11.54l.65-25.95H285.05Z" fill="#231f20"/><rect x="283.27" y="119.83" width="16.42" height="2.73" fill="#fff"/><path d="M299.69,123.06H283.27a.5.5,0,0,1-.5-.5v-2.73a.5.5,0,0,1,.5-.5h16.42a.5.5,0,0,1,.5.5v2.73A.5.5,0,0,1,299.69,123.06Zm-15.92-1h15.42v-1.73H283.77Z" fill="#231f20"/><path d="M291.75,140.41a6,6,0,1,1,5.49-6A5.76,5.76,0,0,1,291.75,140.41Zm0-10.95a5,5,0,1,0,4.49,5A4.76,4.76,0,0,0,291.75,129.46Z" fill="#d1d3d4"/><path d="M267.9,83.48a11.17,11.17,0,0,1-3.6-.62A24.3,24.3,0,0,1,259.93,81h0c-.34-.19-.67-.41-1-.63a7.28,7.28,0,0,1-3.21-4.81,3.2,3.2,0,0,1,.34-2.1,4.81,4.81,0,0,1,2.2-1.67,5.71,5.71,0,0,0,1.6-1c1-1.07.61-2.63.21-4.28-.11-.42-.21-.83-.29-1.23a8.65,8.65,0,0,1,1.9-7.28,8.81,8.81,0,0,1,7.43-2.89c3.88.44,6.94,2.31,8.4,5.12a8.68,8.68,0,0,1-.41,8.34,4.79,4.79,0,0,0-.88,2.6,4.48,4.48,0,0,0,1.25,2.16,5.66,5.66,0,0,1,1.46,2.61c.24,1.64-.84,3.21-3.3,4.8A14.17,14.17,0,0,1,267.9,83.48Zm-7.47-3.36a23.07,23.07,0,0,0,4.19,1.79c4.22,1.44,7.53-.13,10.48-2,2.1-1.37,3-2.61,2.85-3.82a4.82,4.82,0,0,0-1.24-2.12,5.38,5.38,0,0,1-1.47-2.69,5.39,5.39,0,0,1,.95-3.12,7.75,7.75,0,0,0,.44-7.47c-1.3-2.51-4.08-4.18-7.62-4.59a7.77,7.77,0,0,0-6.57,2.56,7.66,7.66,0,0,0-1.67,6.43c.08.38.18.78.28,1.18.43,1.75.92,3.74-.45,5.2a6.45,6.45,0,0,1-1.89,1.24A4,4,0,0,0,256.93,74a2.24,2.24,0,0,0-.21,1.46,6.37,6.37,0,0,0,2.81,4.12,10.71,10.71,0,0,0,.9.59Z" fill="#d1d3d4"/><path d="M295.13,83.19a20.08,20.08,0,0,1-7.47-1.55l-.5-.2a6.42,6.42,0,0,0-6.79.26,12.11,12.11,0,0,1-3.48,1.17,8.18,8.18,0,0,1-7.15-3.1h0A11.29,11.29,0,0,1,267,74a6.13,6.13,0,0,1,3.35-6.45c2.32-1,4.79-.31,7.19.37a14.23,14.23,0,0,0,5.37.82,12.78,12.78,0,0,0,4-1.38,22.69,22.69,0,0,1,2.52-1.07c4-1.33,11.73,0,14.77,3.34a6.86,6.86,0,0,1,1.65,6.57,9.62,9.62,0,0,1-6.31,6.38A14.19,14.19,0,0,1,295.13,83.19Zm-11.07-3.6h.24a9.71,9.71,0,0,1,3.25.91l.48.2a16.45,16.45,0,0,0,11.13.87,8.62,8.62,0,0,0,5.66-5.67,5.92,5.92,0,0,0-1.43-5.65c-2.74-3-10.05-4.29-13.71-3.06a21.22,21.22,0,0,0-2.41,1A13.73,13.73,0,0,1,283,69.7a15.2,15.2,0,0,1-5.76-.86c-2.32-.66-4.52-1.29-6.51-.41A5.17,5.17,0,0,0,268,73.84a10.35,10.35,0,0,0,2.54,5.27c1.06,1.19,3.28,3.15,6.28,2.77A11.38,11.38,0,0,0,280,80.79,9.93,9.93,0,0,1,284.06,79.59Z" fill="#d1d3d4"/><path d="M293.71,75.7a4.33,4.33,0,0,1-3.55-1.49A6.65,6.65,0,0,0,288.5,73a6.84,6.84,0,0,0-2.33-.63,5.15,5.15,0,0,1-3.77-1.8,5.93,5.93,0,0,1-1.11-4.82,8,8,0,0,1,3.7-5.32c5.27-3.1,15.05.13,18.24,4.71,1.13,1.62,2.42,4.83-1.6,8.08a12.72,12.72,0,0,1-7.29,2.5h0Zm-3.6-15.54a9.11,9.11,0,0,0-4.61,1.08,7,7,0,0,0-3.22,4.64,4.85,4.85,0,0,0,.91,4,4.2,4.2,0,0,0,3.12,1.44,6.74,6.74,0,0,1,4.54,2.16,3.57,3.57,0,0,0,3.43,1.19h0A12.12,12.12,0,0,0,301,72.4c2.55-2.07,3-4.4,1.41-6.73C300.27,62.59,294.77,60.16,290.11,60.16Z" fill="#d1d3d4"/><path d="M141.1,72.06s3.23-2.62,0-6h-5.21s1.12,4.37,0,6Z" fill="#231f20"/><path d="M141.1,72.56h-5.21a.52.52,0,0,1-.45-.27.51.51,0,0,1,0-.52c.81-1.17.22-4.42-.08-5.57a.57.57,0,0,1,.09-.44.51.51,0,0,1,.4-.19h5.21a.55.55,0,0,1,.36.15A4.84,4.84,0,0,1,143,69.35a4.75,4.75,0,0,1-1.62,3.1A.51.51,0,0,1,141.1,72.56Zm-4.43-1h4.23A3.66,3.66,0,0,0,142,69.28a3.73,3.73,0,0,0-1.15-2.71h-4.36A11.6,11.6,0,0,1,136.67,71.56Z" fill="#231f20"/><path d="M138.27,70.08a3.74,3.74,0,0,0-1.13-3.19,7.91,7.91,0,0,0-1.31-1.34,8.34,8.34,0,0,0-3.09-1.22c-2.43-.59-5.27.16-7.75.21a19.72,19.72,0,0,1-7.78-1.44A5.24,5.24,0,0,1,115,61.65c-.62,3.63-.54,7.63,1.55,10.68a13.89,13.89,0,0,0,7,4.83,11.27,11.27,0,0,0,11.23-1.63,9.69,9.69,0,0,0,3.18-4.19A6.53,6.53,0,0,0,138.27,70.08Z" fill="#fff"/><path d="M127.88,78.46a13.57,13.57,0,0,1-4.54-.83,14.34,14.34,0,0,1-7.23-5c-1.87-2.73-2.41-6.44-1.62-11a.51.51,0,0,1,.37-.4.49.49,0,0,1,.51.18,4.89,4.89,0,0,0,2,1.3A19.65,19.65,0,0,0,125,64c.82,0,1.67-.11,2.57-.21a15.51,15.51,0,0,1,5.31,0,8.81,8.81,0,0,1,3.28,1.3,9.79,9.79,0,0,1,1.39,1.42,4.21,4.21,0,0,1,1.23,3.59h0a6.66,6.66,0,0,1-.37,1.36,10.29,10.29,0,0,1-3.34,4.41A11.5,11.5,0,0,1,127.88,78.46ZM115.33,62.67c-.52,3.9,0,7,1.61,9.37a13.3,13.3,0,0,0,6.74,4.65,10.84,10.84,0,0,0,10.76-1.55,9.27,9.27,0,0,0,3-4,6.16,6.16,0,0,0,.33-1.16,3.3,3.3,0,0,0-1-2.8A8.15,8.15,0,0,0,135.53,66a8,8,0,0,0-2.91-1.13,14.75,14.75,0,0,0-5,0c-.88.09-1.8.19-2.66.21a20.7,20.7,0,0,1-8-1.47A7.89,7.89,0,0,1,115.33,62.67Zm22.94,7.41h0Z" fill="#231f20"/><rect x="200" y="44.01" width="42.46" height="28.04" fill="#fff"/><path d="M242.46,72.56H200a.5.5,0,0,1-.5-.5V44a.5.5,0,0,1,.5-.5h42.46a.51.51,0,0,1,.5.5V72.06A.51.51,0,0,1,242.46,72.56Zm-42-1H242V44.51H200.5Z" fill="#d1d3d4"/><rect x="200" y="72.06" width="42.46" height="5.55" fill="#fff"/><path d="M242.46,78.11H200a.5.5,0,0,1-.5-.5V72.06a.5.5,0,0,1,.5-.5h42.46a.5.5,0,0,1,.5.5v5.55A.5.5,0,0,1,242.46,78.11Zm-42-1H242V72.56H200.5Z" fill="#d1d3d4"/><path d="M204.86,65.53a.49.49,0,0,1-.39-.81c.48-.6,12-14.73,22.74-13.88,4.28.34,7.2,2.58,7.82,6a6.76,6.76,0,0,1-3.71,7.36c-3,1.39-5.78,1.37-7.72-.06a5.81,5.81,0,0,1-2.06-5.74,4.37,4.37,0,0,1,3.13-4,5.23,5.23,0,0,1,5.12,1.45,2.18,2.18,0,0,1,.33,2.45c-.76,1.47-1.66,2.24-2.68,2.28-1.63,0-2.83-1.85-2.88-1.93a.5.5,0,0,1,.17-.69.49.49,0,0,1,.68.17c.26.41,1.09,1.5,2,1.45s1.42-1,1.82-1.74a1.18,1.18,0,0,0-.22-1.36,4.21,4.21,0,0,0-4.07-1.12,3.42,3.42,0,0,0-2.41,3.17,4.85,4.85,0,0,0,1.66,4.79c1.63,1.21,4.08,1.2,6.71,0A5.74,5.74,0,0,0,234,57c-.53-2.93-3.11-4.86-6.91-5.16C216.92,51,205.36,65.2,205.25,65.35A.51.51,0,0,1,204.86,65.53Z" fill="#d1d3d4"/><path d="M221.44,98.13H205.08a.5.5,0,0,1-.5-.5v-13a.5.5,0,0,1,.5-.5h16.36a.5.5,0,0,1,.5.5v13A.5.5,0,0,1,221.44,98.13Zm-15.86-1h15.36v-12H205.58Z" fill="#d1d3d4"/><path d="M213.26,87a.5.5,0,0,1-.5-.5V83.39a.5.5,0,0,1,.5-.5.5.5,0,0,1,.5.5v3.09A.5.5,0,0,1,213.26,87Z" fill="#d1d3d4"/></g></svg>