<svg xmlns="http://www.w3.org/2000/svg" viewBox="0 0 400 300"><g id="_59_ui_design" data-name="#59_ui_design"><rect x="230.39" y="61.84" width="99.67" height="56.82" fill="#fff"/><path d="M330.05,119.16H230.39a.5.5,0,0,1-.5-.5V61.84a.5.5,0,0,1,.5-.5h99.66a.5.5,0,0,1,.5.5v56.82A.5.5,0,0,1,330.05,119.16Zm-99.16-1h98.66V62.34H230.89Z" fill="#231f20"/><rect x="240.63" y="70.13" width="22.18" height="40.1" fill="#fff"/><path d="M262.81,110.73H240.63a.5.5,0,0,1-.5-.5V70.13a.5.5,0,0,1,.5-.5h22.18a.5.5,0,0,1,.5.5v40.1A.51.51,0,0,1,262.81,110.73Zm-21.68-1h21.18V70.63H241.13Z" fill="#e6e7e8"/><rect x="270.17" y="70.13" width="22.18" height="40.1" fill="#fff"/><path d="M292.35,110.73H270.17a.5.5,0,0,1-.5-.5V70.13a.5.5,0,0,1,.5-.5h22.18a.5.5,0,0,1,.5.5v40.1A.51.51,0,0,1,292.35,110.73Zm-21.68-1h21.18V70.63H270.67Z" fill="#e6e7e8"/><rect x="299.71" y="70.13" width="22.18" height="40.1" fill="#fff"/><path d="M321.89,110.73H299.71a.51.51,0,0,1-.5-.5V70.13a.5.5,0,0,1,.5-.5h22.18a.5.5,0,0,1,.5.5v40.1A.5.5,0,0,1,321.89,110.73Zm-21.68-1h21.18V70.63H300.21Z" fill="#e6e7e8"/><path d="M262.81,84.94H240.63a.5.5,0,0,1-.48-.36.5.5,0,0,1,.21-.56l10.43-6.73-10.43-6.74a.49.49,0,0,1-.15-.69.5.5,0,0,1,.69-.15l10.82,7,10.81-7a.51.51,0,0,1,.7.15.5.5,0,0,1-.15.69l-10.44,6.74L263.08,84a.5.5,0,0,1-.27.92Zm-20.48-1h18.78l-9.39-6.06Z" fill="#e6e7e8"/><path d="M258.83,89.08H244.52a.5.5,0,0,1-.5-.5.5.5,0,0,1,.5-.5h14.31a.5.5,0,0,1,.5.5A.5.5,0,0,1,258.83,89.08Z" fill="#e6e7e8"/><path d="M258.83,94.36H244.52a.5.5,0,0,1-.5-.5.5.5,0,0,1,.5-.5h14.31a.5.5,0,0,1,.5.5A.5.5,0,0,1,258.83,94.36Z" fill="#e6e7e8"/><path d="M258.83,99.63H244.52a.5.5,0,1,1,0-1h14.31a.5.5,0,0,1,0,1Z" fill="#e6e7e8"/><path d="M258.83,104.9H244.52a.5.5,0,0,1,0-1h14.31a.5.5,0,0,1,0,1Z" fill="#e6e7e8"/><path d="M292.35,110.73H270.17a.5.5,0,0,1-.48-.36.5.5,0,0,1,.21-.56l10.44-6.74L269.9,96.34a.51.51,0,0,1-.15-.7.49.49,0,0,1,.69-.14l.36.22a.48.48,0,0,1,.46-.3h21.09a.5.5,0,0,1,.48.35.51.51,0,0,1-.21.57l-10.44,6.73,10.44,6.74a.5.5,0,0,1,.21.56A.5.5,0,0,1,292.35,110.73Zm-20.48-1h18.78l-9.39-6.06Zm0-13.31,9.39,6.06,9.39-6.06Z" fill="#e6e7e8"/><path d="M287.08,74.9H274.65a.5.5,0,0,1-.5-.5.5.5,0,0,1,.5-.5h12.43a.5.5,0,0,1,.5.5A.51.51,0,0,1,287.08,74.9Z" fill="#e6e7e8"/><path d="M287.08,79.67H274.65a.5.5,0,0,1-.5-.5.5.5,0,0,1,.5-.5h12.43a.5.5,0,0,1,.5.5A.51.51,0,0,1,287.08,79.67Z" fill="#e6e7e8"/><path d="M284.31,84.44h-9.66a.5.5,0,0,1-.5-.5.5.5,0,0,1,.5-.5h9.66a.5.5,0,0,1,.5.5A.5.5,0,0,1,284.31,84.44Z" fill="#e6e7e8"/><path d="M285.7,93.35a2.64,2.64,0,1,1,2.63-2.63A2.64,2.64,0,0,1,285.7,93.35Zm0-4.27a1.64,1.64,0,1,0,1.63,1.64A1.64,1.64,0,0,0,285.7,89.08Z" fill="#e6e7e8"/><path d="M316.77,91.22H305.22a2.45,2.45,0,1,1,0-4.89h11.55a2.45,2.45,0,0,1,0,4.89Zm-11.55-3.89a1.45,1.45,0,1,0,0,2.89h11.55a1.45,1.45,0,0,0,0-2.89Z" fill="#e6e7e8"/><path d="M318.71,83.81H303.27a.5.5,0,0,1-.5-.5V73.39a.5.5,0,0,1,.5-.5h15.44a.5.5,0,0,1,.5.5v9.92A.5.5,0,0,1,318.71,83.81Zm-14.94-1h14.44V73.89H303.77Z" fill="#e6e7e8"/><path d="M303.27,83.81a.51.51,0,0,1-.42-.23.5.5,0,0,1,.15-.69L318.44,73a.5.5,0,0,1,.54.84l-15.44,9.92A.45.45,0,0,1,303.27,83.81Z" fill="#e6e7e8"/><path d="M318.71,83.81a.45.45,0,0,1-.27-.08L303,73.81a.5.5,0,1,1,.54-.84L319,82.89a.5.5,0,0,1,.15.69A.48.48,0,0,1,318.71,83.81Z" fill="#e6e7e8"/><path d="M318.71,105.93H303.27a.5.5,0,0,1-.5-.5V95.51a.5.5,0,0,1,.5-.5h15.44a.5.5,0,0,1,.5.5v9.92A.5.5,0,0,1,318.71,105.93Zm-14.94-1h14.44V96H303.77Z" fill="#e6e7e8"/><path d="M303.27,105.93a.51.51,0,0,1-.42-.23A.5.5,0,0,1,303,105l15.44-9.92a.5.5,0,1,1,.54.84l-15.44,9.92A.45.45,0,0,1,303.27,105.93Z" fill="#e6e7e8"/><path d="M318.71,105.93a.45.45,0,0,1-.27-.08L303,95.93a.5.5,0,0,1,.54-.84L319,105a.5.5,0,0,1,.15.69A.48.48,0,0,1,318.71,105.93Z" fill="#e6e7e8"/><path d="M94.3,241,45.16,160.12c-1.73-2.89,1.46-15.78,1.46-15.78l244.92,9.79c4.56,0,9.87,2.69,11.85,6l51.87,72.52c.46,7.28-2.85,12.22-7.41,12.22L106.14,247C101.58,247,96.28,244.35,94.3,241Z" fill="#231f20"/><path d="M106.15,247.53c-4.71,0-10.22-2.8-12.28-6.23L44.74,160.38c-1.79-3,1.06-14.81,1.39-16.15a.48.48,0,0,1,.51-.38l244.92,9.79c4.69,0,10.19,2.79,12.25,6.23l51.86,72.48a.62.62,0,0,1,.09.26c.28,4.39-.81,8.23-3,10.53a6.67,6.67,0,0,1-4.94,2.22ZM47,144.86c-.91,3.8-2.7,12.86-1.41,15l49.13,80.91h0c1.9,3.17,7,5.75,11.42,5.75l241.71-2.17a5.72,5.72,0,0,0,4.22-1.9c1.95-2.08,2.93-5.59,2.7-9.64L303,160.41c-1.92-3.2-7-5.78-11.44-5.78Z" fill="#231f20"/><path d="M96.38,229.56l-49.13-82c-2-3.31.1-6,4.66-6H293.62c4.56,0,9.87,2.68,11.85,6l49.13,82c2,3.31-.1,6-4.67,6H108.23C103.67,235.55,98.36,232.87,96.38,229.56Z" fill="#fff"/><path d="M349.93,236.05H108.23c-4.71,0-10.22-2.8-12.28-6.23l-49.13-82a4.23,4.23,0,0,1-.37-4.37c.85-1.51,2.84-2.38,5.47-2.38h241.7c4.71,0,10.22,2.8,12.28,6.23l49.13,82a4.23,4.23,0,0,1,.37,4.37C354.55,235.18,352.55,236.05,349.93,236.05ZM96.81,229.3c1.9,3.17,7,5.75,11.42,5.75h241.7c2.25,0,3.93-.68,4.6-1.87a3.24,3.24,0,0,0-.36-3.36l-49.13-82c-1.9-3.17-7-5.75-11.42-5.75H51.92c-2.25,0-3.93.68-4.6,1.87a3.24,3.24,0,0,0,.36,3.36Z" fill="#231f20"/><polygon points="281.48 146.5 331.88 230.62 133.15 230.62 82.75 146.5 281.48 146.5" fill="#fff"/><path d="M331.88,231.07H133.14a.44.44,0,0,1-.39-.22L82.36,146.74a.45.45,0,0,1,0-.46.46.46,0,0,1,.4-.23H281.48a.44.44,0,0,1,.39.22l50.4,84.11a.45.45,0,0,1,0,.46A.45.45,0,0,1,331.88,231.07Zm-198.48-.91H331.07L281.22,147H83.55Z" fill="#231f20"/><path d="M100.21,205H91.77c-3,0-6.39-1.88-7.68-4.19L74.5,183.65a3.06,3.06,0,0,1-.17-3.09A3.82,3.82,0,0,1,77.77,179h8.44c2.94,0,6.39,1.88,7.68,4.19l9.58,17.17a3,3,0,0,1,.18,3.09A3.82,3.82,0,0,1,100.21,205ZM77.77,179.93a2.92,2.92,0,0,0-2.65,1.1,2.14,2.14,0,0,0,.18,2.17l9.59,17.17h0a8.55,8.55,0,0,0,6.88,3.72h8.44a3,3,0,0,0,2.65-1.09,2.18,2.18,0,0,0-.18-2.18l-9.59-17.17a8.55,8.55,0,0,0-6.88-3.72Z" fill="#231f20"/><path d="M324,201.59a.46.46,0,0,1-.4-.24L309.2,175.64a.45.45,0,0,1,.17-.62.46.46,0,0,1,.62.18l14.35,25.71a.45.45,0,0,1-.17.62A.46.46,0,0,1,324,201.59Z" fill="#231f20"/><path d="M327.88,208.64a.48.48,0,0,1-.4-.23L325.56,205a.47.47,0,0,1,.18-.63.46.46,0,0,1,.62.18l1.92,3.45a.46.46,0,0,1-.17.62A.46.46,0,0,1,327.88,208.64Z" fill="#231f20"/><polygon points="242.55 223.41 200.78 153.71 258.21 153.71 299.98 223.41 242.55 223.41" fill="#fff"/><path d="M300,223.91H242.55a.5.5,0,0,1-.43-.24L200.35,154a.5.5,0,0,1,0-.5.47.47,0,0,1,.43-.25h57.43a.5.5,0,0,1,.43.24l41.77,69.71a.5.5,0,0,1,0,.5A.47.47,0,0,1,300,223.91Zm-57.15-1H299.1l-41.17-68.7H201.66Z" fill="#e6e7e8"/><path d="M249.22,204.15a.51.51,0,0,1-.28-.09.5.5,0,0,1-.13-.69c5.57-8.16,14.35-21.37,15.25-23.53-2.86-1.71-31.74-17.37-47.14-25.69a.5.5,0,0,1-.21-.68.51.51,0,0,1,.68-.2c7.83,4.23,46.93,25.37,47.56,26,.39.37.93.88-15.31,24.69A.5.5,0,0,1,249.22,204.15Zm15-24.18h0Z" fill="#e6e7e8"/><path d="M266.78,223.91a.43.43,0,0,1-.19,0,.49.49,0,0,1-.26-.66l4.72-11L251,201.1a.5.5,0,0,1-.19-.68.5.5,0,0,1,.68-.2l20.44,11.38a.5.5,0,0,1,.21.63l-4.91,11.38A.49.49,0,0,1,266.78,223.91Z" fill="#e6e7e8"/><path d="M271.81,206.24c-3.81,0-8.28-2.27-10-5.06a3.54,3.54,0,0,1-.3-3.61c.71-1.25,2.35-2,4.49-2,3.82,0,8.28,2.28,10,5.07a3.51,3.51,0,0,1,.3,3.61C275.59,205.53,274,206.24,271.81,206.24ZM266,196.6c-1.77,0-3.09.53-3.62,1.46a2.57,2.57,0,0,0,.29,2.61c1.51,2.52,5.6,4.57,9.1,4.57,1.78,0,3.09-.53,3.62-1.45a2.56,2.56,0,0,0-.29-2.61C273.63,198.66,269.54,196.6,266,196.6Z" fill="#e6e7e8"/><path d="M229.85,222.11,190,155.52a.5.5,0,0,1,.17-.68.49.49,0,0,1,.69.17l39.9,66.59Z" fill="#e6e7e8"/><path d="M219,222.35a.49.49,0,0,1-.43-.24l-39.9-66.59a.5.5,0,0,1,.17-.68.49.49,0,0,1,.69.17l39.9,66.59a.5.5,0,0,1-.18.68A.47.47,0,0,1,219,222.35Z" fill="#e6e7e8"/><path d="M207.31,222.11l-39.9-66.59a.5.5,0,0,1,.86-.51l39.89,66.59Z" fill="#e6e7e8"/><path d="M177.4,187.1H145a.49.49,0,0,1-.42-.24l-19-31.78a.49.49,0,0,1,.43-.75h32.38a.5.5,0,0,1,.43.24l19,31.78a.5.5,0,0,1,0,.5A.47.47,0,0,1,177.4,187.1Zm-32.1-1h31.22l-18.44-30.77H126.86Z" fill="#e6e7e8"/><path d="M150.24,178.68a.52.52,0,0,1-.29-.09.5.5,0,0,1-.12-.7l6.72-9.6-20.57-13a.49.49,0,0,1-.16-.69.5.5,0,0,1,.69-.15l21,13.32a.52.52,0,0,1,.22.32.49.49,0,0,1-.08.39l-7,10A.5.5,0,0,1,150.24,178.68Z" fill="#e6e7e8"/><path d="M155.28,187.1A.52.52,0,0,1,155,187a.5.5,0,0,1-.11-.7l4-5.51-7.25-4.61a.5.5,0,1,1,.54-.84l7.7,4.89a.45.45,0,0,1,.22.33.49.49,0,0,1-.08.39l-4.34,5.94A.51.51,0,0,1,155.28,187.1Z" fill="#e6e7e8"/><path d="M163.23,180.4a5.67,5.67,0,0,1-4.51-2.31,1.77,1.77,0,0,1-.13-1.83,2.35,2.35,0,0,1,2.17-1,5.64,5.64,0,0,1,4.51,2.31,1.77,1.77,0,0,1,.13,1.83A2.38,2.38,0,0,1,163.23,180.4Zm-2.47-4.13a1.47,1.47,0,0,0-1.3.48.86.86,0,0,0,.12.83,4.71,4.71,0,0,0,3.65,1.82,1.47,1.47,0,0,0,1.3-.48.86.86,0,0,0-.12-.83A4.68,4.68,0,0,0,160.76,176.27Z" fill="#e6e7e8"/><path d="M198.78,222.79H166.4a.5.5,0,0,1-.43-.24l-19-31.78a.5.5,0,0,1,0-.5.47.47,0,0,1,.43-.25h32.39a.49.49,0,0,1,.42.24l19,31.78a.49.49,0,0,1-.43.75Zm-32.1-1H197.9L179.46,191H148.24Z" fill="#e6e7e8"/><path d="M171.62,214.37a.52.52,0,0,1-.29-.09.51.51,0,0,1-.12-.7l6.72-9.6-20.57-13a.5.5,0,1,1,.54-.84l21,13.32a.45.45,0,0,1,.22.32.49.49,0,0,1-.08.39l-7,10A.52.52,0,0,1,171.62,214.37Z" fill="#e6e7e8"/><path d="M176.67,222.79a.53.53,0,0,1-.3-.09.51.51,0,0,1-.11-.7l4-5.51L173,211.88a.5.5,0,1,1,.54-.84l7.69,4.89a.49.49,0,0,1,.23.33.54.54,0,0,1-.09.39l-4.34,5.94A.51.51,0,0,1,176.67,222.79Z" fill="#e6e7e8"/><path d="M184.62,216.09a5.61,5.61,0,0,1-4.51-2.31A1.77,1.77,0,0,1,180,212a2.38,2.38,0,0,1,2.17-1,5.61,5.61,0,0,1,4.51,2.31,1.77,1.77,0,0,1,.14,1.83A2.38,2.38,0,0,1,184.62,216.09ZM182.14,212a1.48,1.48,0,0,0-1.3.48.88.88,0,0,0,.12.83,4.73,4.73,0,0,0,3.66,1.82,1.48,1.48,0,0,0,1.3-.48.86.86,0,0,0-.13-.83A4.68,4.68,0,0,0,182.14,212Z" fill="#e6e7e8"/><path d="M130.11,183.21a6.55,6.55,0,0,1-5.35-2.92l-8.59-15.39a2.22,2.22,0,0,1-.12-2.27,2.77,2.77,0,0,1,2.49-1.14,6.58,6.58,0,0,1,5.35,2.92l8.59,15.39a2.24,2.24,0,0,1,.11,2.27A2.72,2.72,0,0,1,130.11,183.21Zm-11.57-20.72a1.83,1.83,0,0,0-1.63.65,1.3,1.3,0,0,0,.13,1.27l8.59,15.39h0a5.64,5.64,0,0,0,4.48,2.41,1.81,1.81,0,0,0,1.62-.64,1.29,1.29,0,0,0-.13-1.28L123,164.9A5.64,5.64,0,0,0,118.54,162.49Z" fill="#e6e7e8"/><path d="M151.49,216.09a6.69,6.69,0,0,1-5.34-2.73h0L137.56,199a2,2,0,0,1-.16-2.1,2.76,2.76,0,0,1,2.52-1.14,6.67,6.67,0,0,1,5.34,2.73l8.59,14.34A2,2,0,0,1,154,215,2.76,2.76,0,0,1,151.49,216.09ZM147,212.85a5.79,5.79,0,0,0,4.48,2.24,1.87,1.87,0,0,0,1.65-.63,1.11,1.11,0,0,0-.14-1.1L144.4,199a5.77,5.77,0,0,0-4.48-2.24,1.88,1.88,0,0,0-1.65.63,1.14,1.14,0,0,0,.15,1.1Z" fill="#e6e7e8"/><path d="M313.58,231.12a.5.5,0,0,1-.43-.25l-49.28-83.75a.5.5,0,0,1,.86-.51L314,230.36a.51.51,0,0,1-.18.69A.55.55,0,0,1,313.58,231.12Z" fill="#e6e7e8"/><ellipse cx="276.12" cy="153.62" rx="1.88" ry="3.25" transform="translate(21.35 340.53) rotate(-65.35)" fill="#e6e7e8"/><line x1="278.99" y1="158.75" x2="290.42" y2="179.23" fill="#fff"/><path d="M290.42,179.73a.5.5,0,0,1-.43-.25L278.55,159a.5.5,0,0,1,.88-.49L290.86,179a.5.5,0,0,1-.19.68A.57.57,0,0,1,290.42,179.73Z" fill="#e6e7e8"/><path d="M116.49,181.4l-2-1.22.67-.72,3.24,2,.67,1.2h-7.77l-.69-1.23Z" fill="#e6e7e8"/><path d="M115.34,190l-2.15-3.84h.91l4.5,2.4.52.28.56.25.56.18a2.62,2.62,0,0,0,.54.06,1.25,1.25,0,0,0,.52-.09.52.52,0,0,0,.29-.25.57.57,0,0,0,.06-.37,1.27,1.27,0,0,0-.16-.46,2.21,2.21,0,0,0-.77-.78,2.77,2.77,0,0,0-1.12-.42l-.27-.65a4.06,4.06,0,0,1,1.7.62,3.37,3.37,0,0,1,1.16,1.19,1.94,1.94,0,0,1,.26.7,1,1,0,0,1,0,.58.8.8,0,0,1-.41.4,1.75,1.75,0,0,1-.8.15,3.72,3.72,0,0,1-.88-.11,5.74,5.74,0,0,1-.86-.28c-.28-.11-.56-.24-.84-.38l-.83-.45-3.49-1.91,1.77,3.18Z" fill="#e6e7e8"/><path d="M122,193.91l.17.31a3,3,0,0,0,.36.51,2.43,2.43,0,0,0,.49.42,2.09,2.09,0,0,0,.6.29,2.36,2.36,0,0,0,.72.11q.63,0,.81-.3c.12-.19.08-.47-.12-.82a2.14,2.14,0,0,0-.6-.68,3.48,3.48,0,0,0-.9-.48l0-.53a4.56,4.56,0,0,1,1.32.69,3.41,3.41,0,0,1,.85,1,2.06,2.06,0,0,1,.24.68.91.91,0,0,1-.08.55.83.83,0,0,1-.42.38,1.78,1.78,0,0,1-.79.14,2.34,2.34,0,0,1-.64-.08,3.22,3.22,0,0,1-.64-.22,3.08,3.08,0,0,1-.59-.33,3.87,3.87,0,0,1-.48-.39v0a.84.84,0,0,1,0,.47.71.71,0,0,1-.24.37,1.33,1.33,0,0,1-.46.24,2.06,2.06,0,0,1-.64.09,3.59,3.59,0,0,1-1-.16,4,4,0,0,1-1.71-1,3.63,3.63,0,0,1-.57-.75,1.74,1.74,0,0,1-.27-1.16c.06-.33.32-.58.78-.74l.61.65a.79.79,0,0,0-.57.46,1.11,1.11,0,0,0,.21.85,1.87,1.87,0,0,0,.38.48,2.74,2.74,0,0,0,.54.41,2.42,2.42,0,0,0,.64.27,2.24,2.24,0,0,0,.68.1,1.37,1.37,0,0,0,.67-.13.62.62,0,0,0,.3-.34.91.91,0,0,0,0-.49,2.55,2.55,0,0,0-.24-.58l-.15-.26Z" fill="#e6e7e8"/><path d="M124.73,202.18l.49.87h-.73l-.49-.87h-1.84l-.34-.62h1.84L122.2,199h.9l6.39,2.44.44.79Zm4.07-.62h0l-5.58-2.09,1.17,2.1Z" fill="#e6e7e8"/><path d="M108.17,185a.49.49,0,0,1-.44-.26l-3.06-5.47a.51.51,0,0,1,.2-.68.5.5,0,0,1,.68.19l3.06,5.48a.51.51,0,0,1-.2.68A.5.5,0,0,1,108.17,185Z" fill="#e6e7e8"/><path d="M216.23,66.24c-1.3-5.25-5-10.4-11.17-8.44a3,3,0,0,1-1.32.25,2.72,2.72,0,0,1-1-.41c-5.89-3.21-14.14-.73-19.26,3.08s-8.33,9.6-13.89,12.4c-3,1.49-6.33,2-9.57,2.74s-6.55,2-8.74,4.46-2.82,6.63-.58,9.09c2,2.16,5.44,2.41,7.46,4.53a5.25,5.25,0,0,0-5.54,6c.56,2.65,3.08,4.35,5.45,5.67,8.35,4.63,17.67,8,27.22,7.77A31.13,31.13,0,0,0,205,106c5.86-5.21,8.22-10.72,10.42-18.19A41.31,41.31,0,0,0,216.23,66.24Z" fill="#fff"/><path d="M184.25,113.89c-8.16,0-17-2.64-26.42-7.85-2.48-1.38-5.1-3.17-5.7-6a5.44,5.44,0,0,1,1.46-4.76,5.77,5.77,0,0,1,3.24-1.81,16.25,16.25,0,0,0-2.57-1.3,11,11,0,0,1-3.92-2.43c-2.53-2.75-1.67-7.2.57-9.75,2.42-2.76,6.08-3.91,9-4.61l2.21-.49a30.67,30.67,0,0,0,7.24-2.22c3.16-1.58,5.54-4.15,8.06-6.86a43.41,43.41,0,0,1,5.76-5.49c5.2-3.87,13.61-6.49,19.8-3.11a2.47,2.47,0,0,0,.83.35,2.24,2.24,0,0,0,.93-.18l.17-.06a7.79,7.79,0,0,1,6.34.49c2.51,1.41,4.5,4.44,5.46,8.31a41.78,41.78,0,0,1-.84,21.79c-2.28,7.74-4.73,13.24-10.56,18.42a31.72,31.72,0,0,1-20,7.54ZM157.62,94.4a4.56,4.56,0,0,0-3.3,1.56,4.46,4.46,0,0,0-1.22,3.88c.52,2.44,2.93,4.06,5.21,5.33,9.63,5.35,18.67,8,27,7.71a30.78,30.78,0,0,0,19.37-7.29c5.65-5,8-10.39,10.27-18a41,41,0,0,0,.83-21.27h0c-.9-3.6-2.71-6.4-5-7.68a6.84,6.84,0,0,0-5.55-.41l-.16.06a2.44,2.44,0,0,1-2.47-.21c-5.62-3.07-13.7-.8-18.81,3a42.54,42.54,0,0,0-5.62,5.37c-2.47,2.66-5,5.4-8.34,7.07a31.11,31.11,0,0,1-7.48,2.3l-2.19.49c-2.77.66-6.25,1.75-8.49,4.3-2,2.22-2.73,6.07-.58,8.42a10.11,10.11,0,0,0,3.59,2.18,11.45,11.45,0,0,1,3.86,2.35.49.49,0,0,1-.43.83A3.59,3.59,0,0,0,157.62,94.4Z" fill="#231f20"/><path d="M169.69,89.42c3.11-1.2-5.19-3-12.65,10.94-5.69,10.68-10.58,30.19-10.58,30.19l-32.73,8.55,12.54,11s35.54-6.75,36.18-8.16S169.69,89.42,169.69,89.42Z" fill="#fff"/><path d="M126.27,150.55a.44.44,0,0,1-.3-.12l-12.54-11a.44.44,0,0,1-.14-.45.46.46,0,0,1,.32-.34l32.47-8.47c.61-2.37,5.26-20.1,10.56-30,5.88-11,12.13-12.23,13.47-12,.6.12.69.49.71.65,0,.35-.21.65-.71.89-.81,6.32-6.59,51-7.24,52.38s-23.15,5.88-36.51,8.42Zm-11.59-11.23,11.73,10.28c13.26-2.52,34.48-6.87,35.68-7.94.44-1.2,4.52-31.94,7.15-52.3a.43.43,0,0,1,.15-.28,4.29,4.29,0,0,0-.92.19c-1.39.4-6.28,2.41-11,11.31-5.6,10.5-10.49,29.89-10.54,30.08a.44.44,0,0,1-.33.33Z" fill="#231f20"/><path d="M216.6,97.07C216.06,96,176.8,80.35,164.21,90s-7,59.25-7,59.25l55.06,8.32S231.25,126.18,216.6,97.07Z" fill="#9897ee"/><path d="M181.27,95.87s-10.82,46.78-10.91,47.19,13.51,5.5,14,4.89,10.88-45.39,10.88-45.39l-12.44-5.42" fill="#231f20"/><path d="M184.23,148.42c-2.7,0-13.54-4.57-13.66-4.62-.37-.19-.79-.4-.69-.85s10.46-45.29,10.9-47.2a.5.5,0,0,1,.6-.37.5.5,0,0,1,.37.6c-.1.45-9.9,42.84-10.83,46.88,1.66.9,11.47,4.52,13.15,4.64.73-2.18,6.67-27.51,10.63-44.65L182.64,97.6a.5.5,0,0,1,.4-.92l12.44,5.42a.49.49,0,0,1,.28.57c-3.87,16.77-10.44,45-11,45.61A.76.76,0,0,1,184.23,148.42Z" fill="#231f20"/><path d="M197.93,94,195,103.33s-2.53,3.89-8.34.51-5.43-8-5.43-8l6-17.23s11.37-2.28,13-12.76a13.41,13.41,0,0,0,11.08,10.67s-2.57,9-4.78,13.65S197.93,94,197.93,94Z" fill="#fff"/><path d="M191.08,105.71a9.2,9.2,0,0,1-4.63-1.44c-6-3.51-5.7-8.24-5.68-8.44a.28.28,0,0,1,0-.13l6-17.23a.47.47,0,0,1,.37-.32c.11,0,11-2.34,12.63-12.35a.5.5,0,0,1,.49-.42h0a.51.51,0,0,1,.5.42,12.78,12.78,0,0,0,10.66,10.26.47.47,0,0,1,.34.22.49.49,0,0,1,.06.41,116.58,116.58,0,0,1-4.81,13.72c-2,4.24-7.24,4.22-8.77,4.11l-2.76,9-.06.12A5.38,5.38,0,0,1,191.08,105.71ZM181.76,96c0,.54,0,4.44,5.2,7.45,5,2.9,7.32.11,7.62-.3l2.87-9.27a.5.5,0,0,1,.54-.35c.06,0,6.14.72,8.16-3.51a108.4,108.4,0,0,0,4.59-13,13.68,13.68,0,0,1-10.38-9c-2.43,8.2-11,10.73-12.7,11.15ZM195,103.33h0Z" fill="#231f20"/><polygon points="195.51 72.52 176.72 79.02 177.62 81.13 196.19 75.12 195.51 72.52" fill="#231f20"/><path d="M177.62,81.62a.49.49,0,0,1-.45-.3l-.91-2.11a.45.45,0,0,1,0-.39.48.48,0,0,1,.29-.27L195.35,72a.51.51,0,0,1,.4,0,.47.47,0,0,1,.24.31l.68,2.6a.49.49,0,0,1-.33.6l-18.56,6A.44.44,0,0,1,177.62,81.62Zm-.24-2.31.52,1.2,17.69-5.72-.42-1.63Z" fill="#231f20"/><path d="M190.39,79a4.37,4.37,0,0,0-.73-2.6,7.65,7.65,0,0,0-1.87-1.76,3.17,3.17,0,0,0-1.24-.63,2.54,2.54,0,0,0-1,.06,3.31,3.31,0,0,0-2,1.13A3.88,3.88,0,0,0,183,77a7.43,7.43,0,0,0-.09,2,5.16,5.16,0,0,0,5.79,4.55" fill="#fff"/><path d="M188,84.12a5.75,5.75,0,0,1-3.52-1.21,5.69,5.69,0,0,1-2.12-3.82,7.52,7.52,0,0,1,.09-2.18,4.34,4.34,0,0,1,.7-2,3.78,3.78,0,0,1,2.28-1.32,3.14,3.14,0,0,1,1.18-.06,3.58,3.58,0,0,1,1.46.72,8.13,8.13,0,0,1,2,1.88,4.77,4.77,0,0,1,.82,2.91.48.48,0,0,1-.53.47.49.49,0,0,1-.47-.52,3.74,3.74,0,0,0-.65-2.29,7.09,7.09,0,0,0-1.74-1.64,2.92,2.92,0,0,0-1-.55,2.07,2.07,0,0,0-.79.06,2.89,2.89,0,0,0-1.69.94,3.45,3.45,0,0,0-.53,1.54,7.13,7.13,0,0,0-.08,1.91,4.66,4.66,0,0,0,5.23,4.11.52.52,0,0,1,.56.44.51.51,0,0,1-.44.56A5.48,5.48,0,0,1,188,84.12Z" fill="#231f20"/><path d="M203.36,79.67s2,5.81,1,6.46-3.06-.49-3.06-.49" fill="#fff"/><path d="M203.57,86.83a6,6,0,0,1-2.52-.75.5.5,0,0,1-.19-.68.5.5,0,0,1,.68-.19c.59.32,2,.87,2.55.5.29-.4-.26-3.15-1.21-5.88a.5.5,0,0,1,.31-.63.51.51,0,0,1,.64.31c1,2.82,1.91,6.33.8,7A1.94,1.94,0,0,1,203.57,86.83Z" fill="#231f20"/><ellipse cx="200.5" cy="76.64" rx="1.19" ry="0.85" transform="translate(54.82 234.28) rotate(-68.18)" fill="#231f20"/><ellipse cx="206.36" cy="78.52" rx="1.19" ry="0.85" transform="translate(39.76 223.41) rotate(-61.84)" fill="#231f20"/><path d="M203.45,88.65s-9.52,2-8.34-5.81" fill="#fff"/><path d="M201,89.38a7.39,7.39,0,0,1-5.06-1.6c-1.2-1.14-1.64-2.83-1.31-5a.5.5,0,1,1,1,.15c-.28,1.85.06,3.24,1,4.15,2.13,2,6.69,1.11,6.73,1.1a.49.49,0,0,1,.59.39.49.49,0,0,1-.38.59A13.71,13.71,0,0,1,201,89.38Z" fill="#231f20"/><polyline points="195.51 72.52 199.75 72.55 196.19 75.12" fill="#fff"/><path d="M196.19,75.62a.52.52,0,0,1-.41-.21.5.5,0,0,1,.12-.7L198.22,73l-2.71,0a.51.51,0,0,1-.5-.51.5.5,0,0,1,.5-.49h0l4.23,0A.5.5,0,0,1,200,73l-3.56,2.56A.46.46,0,0,1,196.19,75.62Z" fill="#231f20"/><path d="M197.93,94s-4.82-1.61-6.62-3.67c0,0,0,6.12,4.79,9.26Z" fill="#231f20"/><path d="M196.1,100.08a.57.57,0,0,1-.28-.08c-4.93-3.25-5-9.42-5-9.68a.5.5,0,0,1,.32-.46.49.49,0,0,1,.55.13c1.69,1.94,6.36,3.51,6.4,3.52a.51.51,0,0,1,.32.63l-1.83,5.59a.49.49,0,0,1-.31.32A.45.45,0,0,1,196.1,100.08Zm-4.18-8.52a11.25,11.25,0,0,0,3.91,7.22l1.47-4.49A22.58,22.58,0,0,1,191.92,91.56Z" fill="#231f20"/><polygon points="141.46 164.04 166.1 153.44 126.29 134.65 94.92 145.75 141.46 164.04" fill="#fff"/><path d="M141.46,164.5a.45.45,0,0,1-.16,0l-46.54-18.3a.45.45,0,0,1,0-.85l31.37-11.1a.47.47,0,0,1,.35,0L166.29,153a.43.43,0,0,1,.26.42.45.45,0,0,1-.27.41l-24.64,10.6A.37.37,0,0,1,141.46,164.5ZM96.23,145.77l45.23,17.78L165,153.42l-38.72-18.27Z" fill="#231f20"/><path d="M207.82,100.46s-8.76,44-12.06,43.93-42.4-5.23-44.67-5.28-8.42,1.08-10.1,2.48-5.8,8.17-4,8.46,6.29,1.26,7.85,1.19,5.13-3,5.13-3-1.93,3.53.15,3.56,7-2.61,7-2.61,43.51,18.76,51.74,12.13,14.69-26.27,14.5-43.69S212.54,92.07,207.82,100.46Z" fill="#fff"/><path d="M203.07,163.21c-14,0-42.85-12.18-45.88-13.48-1,.5-5.06,2.57-7,2.57h0a1.32,1.32,0,0,1-1.21-.63,2.65,2.65,0,0,1,0-2c-1.23.88-3,2-4,2a38.61,38.61,0,0,1-6.08-.86l-1.87-.34a.94.94,0,0,1-.78-.71c-.51-1.86,3.15-7.38,4.56-8.55,1.77-1.48,8-2.65,10.4-2.59,1,0,8.92,1,18.08,2.16,11.6,1.46,24.75,3.1,26.58,3.12,1.93-.48,7.42-22.53,11.61-43.56a.58.58,0,0,1,0-.14c1.58-2.8,4-4,6.55-3.37,4.82,1.23,9.77,8.78,9.9,20.8.19,17.62-6.39,37.38-14.68,44.05C207.89,162.77,205.75,163.21,203.07,163.21Zm-45.9-14.44a.39.39,0,0,1,.18,0c.11,0,11,4.72,22.75,8.54,15.42,5,25.28,6.26,28.52,3.65,8.09-6.51,14.52-25.95,14.33-43.33-.12-11.44-4.83-18.81-9.21-19.93-2.16-.55-4.11.47-5.49,2.88-.19,1-2.31,11.51-4.78,21.92-5.29,22.33-6.95,22.29-7.72,22.3-1.88,0-15.06-1.66-26.69-3.12-8.75-1.1-17-2.13-18-2.15-2.34-.1-8.31,1.14-9.79,2.37-1.26,1.06-4.12,5.54-4.27,7.32a.6.6,0,0,0,0,.33l1.92.35a45.5,45.5,0,0,0,5.87.85c1.15,0,3.9-2.09,4.86-2.87a.47.47,0,0,1,.58,0,.45.45,0,0,1,.11.57c-.44.82-1,2.24-.68,2.72,0,0,.1.17.43.17h0c1.63,0,5.45-1.84,6.8-2.56A.5.5,0,0,1,157.17,148.77Z" fill="#231f20"/><path d="M141.46,164c-.49-2.9-4.86-45-4.86-45L87.73,101.56l7.2,44.19Z" fill="#fff"/><path d="M141.46,164.5a.45.45,0,0,1-.16,0l-46.54-18.3a.47.47,0,0,1-.29-.35l-7.19-44.18a.5.5,0,0,1,.16-.43.49.49,0,0,1,.45-.08l48.87,17.46a.47.47,0,0,1,.3.38c0,.42,4.37,42.14,4.85,45a.45.45,0,0,1-.16.43A.48.48,0,0,1,141.46,164.5ZM95.33,145.42l45.57,17.91c-.79-6.15-4.33-40.19-4.72-44l-47.87-17.1Z" fill="#231f20"/><path d="M119.25,136.27a11.06,11.06,0,0,0-1.32-5.28,6.22,6.22,0,0,0-2.34-2.58,3.39,3.39,0,0,0-3.36-.09,4.13,4.13,0,0,0-1.61,2.2,7.56,7.56,0,0,0,.5,6.29C113.07,140.1,119.24,141.72,119.25,136.27Z" fill="#fff"/><path d="M116.24,140.29a6.91,6.91,0,0,1-5.51-3.25,8,8,0,0,1-.53-6.67,4.46,4.46,0,0,1,1.79-2.44,3.88,3.88,0,0,1,3.83.08,6.74,6.74,0,0,1,2.51,2.76,11.51,11.51,0,0,1,1.38,5.5h0c0,2.81-1.53,3.64-2.44,3.89A4.27,4.27,0,0,1,116.24,140.29Zm-2.48-11.92a2.6,2.6,0,0,0-1.3.34,3.7,3.7,0,0,0-1.41,2,7,7,0,0,0,.47,5.9c1.11,1.89,3.74,3.17,5.51,2.69,1.15-.31,1.76-1.35,1.77-3a10.76,10.76,0,0,0-1.27-5.06,5.83,5.83,0,0,0-2.16-2.4A3.31,3.31,0,0,0,113.76,128.37Zm5.49,7.9h0Z" fill="#231f20"/><path d="M114.2,131.64c.1.05.39,3.05.39,3.05l2.1-1.87" fill="#fff"/><path d="M114.59,135.14l-.17,0a.43.43,0,0,1-.28-.38c-.12-1.21-.28-2.59-.35-2.88a.43.43,0,0,1,0-.4.45.45,0,0,1,.6-.22c.25.12.33.15.57,2.52l1.43-1.27a.45.45,0,0,1,.64,0,.46.46,0,0,1,0,.64L114.9,135A.51.51,0,0,1,114.59,135.14Z" fill="#231f20"/><rect x="90.17" y="52.97" width="46.04" height="39.09" fill="#fff"/><path d="M136.21,92.56h-46a.5.5,0,0,1-.5-.5V53a.5.5,0,0,1,.5-.5h46a.5.5,0,0,1,.5.5V92.06A.5.5,0,0,1,136.21,92.56Zm-45.54-1h45V53.47h-45Z" fill="#231f20"/><rect x="51.59" y="83" width="27.36" height="24.71" fill="#fff"/><path d="M79,108.21H51.59a.5.5,0,0,1-.5-.5V83a.51.51,0,0,1,.5-.5H79a.5.5,0,0,1,.5.5v24.71A.5.5,0,0,1,79,108.21Zm-26.86-1H78.45V83.5H52.09Z" fill="#231f20"/><path d="M74.89,89.81h-18a.5.5,0,0,1-.5-.5.5.5,0,0,1,.5-.5h18a.5.5,0,0,1,.5.5A.5.5,0,0,1,74.89,89.81Z" fill="#e6e7e8"/><path d="M74.89,95.34h-18a.5.5,0,1,1,0-1h18a.5.5,0,1,1,0,1Z" fill="#e6e7e8"/><path d="M71.32,100.87H56.86a.5.5,0,0,1-.5-.5.5.5,0,0,1,.5-.5H71.32a.5.5,0,0,1,.5.5A.5.5,0,0,1,71.32,100.87Z" fill="#e6e7e8"/><path d="M106.11,89.11a.5.5,0,0,1-.5-.5V56.16a.5.5,0,0,1,.5-.5.51.51,0,0,1,.5.5V88.61A.5.5,0,0,1,106.11,89.11Z" fill="#e6e7e8"/><path d="M103,61.82H94.31a.5.5,0,0,1-.5-.5.51.51,0,0,1,.5-.5H103a.5.5,0,0,1,.5.5A.5.5,0,0,1,103,61.82Z" fill="#e6e7e8"/><path d="M103,67.48H94.31a.51.51,0,0,1-.5-.5.5.5,0,0,1,.5-.5H103a.5.5,0,0,1,.5.5A.5.5,0,0,1,103,67.48Z" fill="#e6e7e8"/><path d="M103,73.13H94.31a.5.5,0,0,1,0-1H103a.5.5,0,0,1,0,1Z" fill="#e6e7e8"/><path d="M103,78.78H94.31a.5.5,0,0,1-.5-.5.51.51,0,0,1,.5-.5H103a.5.5,0,0,1,.5.5A.5.5,0,0,1,103,78.78Z" fill="#e6e7e8"/><path d="M103,84.43H94.31a.5.5,0,0,1-.5-.5.51.51,0,0,1,.5-.5H103a.5.5,0,0,1,.5.5A.5.5,0,0,1,103,84.43Z" fill="#e6e7e8"/><rect x="110.99" y="60.25" width="20.78" height="14.36" fill="#fff"/><path d="M131.77,75.12H111a.5.5,0,0,1-.5-.5V60.25a.5.5,0,0,1,.5-.5h20.77a.5.5,0,0,1,.5.5V74.62A.5.5,0,0,1,131.77,75.12Zm-20.27-1h19.77V60.75H111.5Z" fill="#e6e7e8"/></g></svg>